<svg xmlns="http://www.w3.org/2000/svg" viewBox="0 0 400 500" fill="none">
  <defs>
    <linearGradient id="phil1" x1="0%" y1="0%" x2="100%" y2="100%">
      <stop offset="0%" style="stop-color:#E8D5D5"/>
      <stop offset="50%" style="stop-color:#FAF9F7"/>
      <stop offset="100%" style="stop-color:#F5E6D3"/>
    </linearGradient>
  </defs>
  <!-- Background -->
  <rect width="400" height="500" fill="url(#phil1)"/>
  <!-- Abstract botanical elements -->
  <path d="M200 450 Q200 350 150 300 Q100 250 150 200 Q200 150 200 100" stroke="rgba(212,175,55,0.3)" stroke-width="2" fill="none"/>
  <path d="M200 450 Q200 350 250 300 Q300 250 250 200 Q200 150 200 100" stroke="rgba(212,175,55,0.3)" stroke-width="2" fill="none"/>
  <!-- Leaves -->
  <ellipse cx="130" cy="280" rx="40" ry="20" fill="rgba(212,175,55,0.15)" transform="rotate(-30 130 280)"/>
  <ellipse cx="270" cy="280" rx="40" ry="20" fill="rgba(212,175,55,0.15)" transform="rotate(30 270 280)"/>
  <ellipse cx="120" cy="200" rx="35" ry="18" fill="rgba(232,213,213,0.3)" transform="rotate(-45 120 200)"/>
  <ellipse cx="280" cy="200" rx="35" ry="18" fill="rgba(232,213,213,0.3)" transform="rotate(45 280 200)"/>
  <!-- Center flower/crystal -->
  <circle cx="200" cy="250" r="40" fill="rgba(255,255,255,0.5)"/>
  <circle cx="200" cy="250" r="30" fill="none" stroke="rgba(212,175,55,0.4)" stroke-width="1"/>
  <circle cx="200" cy="250" r="20" fill="rgba(212,175,55,0.2)"/>
  <!-- Decorative circles -->
  <circle cx="100" cy="100" r="30" fill="rgba(232,213,213,0.2)"/>
  <circle cx="320" cy="120" r="25" fill="rgba(212,175,55,0.1)"/>
  <circle cx="80" cy="400" r="35" fill="rgba(212,175,55,0.1)"/>
  <circle cx="340" cy="380" r="28" fill="rgba(232,213,213,0.2)"/>
  <!-- Small accent dots -->
  <circle cx="200" cy="150" r="4" fill="rgba(212,175,55,0.5)"/>
  <circle cx="200" cy="350" r="4" fill="rgba(212,175,55,0.5)"/>
</svg>
