<svg xmlns="http://www.w3.org/2000/svg" viewBox="0 0 400 530" fill="none">
  <defs>
    <linearGradient id="aboutbg1" x1="0%" y1="0%" x2="100%" y2="100%">
      <stop offset="0%" style="stop-color:#FAF9F7"/>
      <stop offset="30%" style="stop-color:#E8D5D5"/>
      <stop offset="70%" style="stop-color:#F5E6D3"/>
      <stop offset="100%" style="stop-color:#E8D5D5"/>
    </linearGradient>
  </defs>
  <!-- Background -->
  <rect width="400" height="530" fill="url(#aboutbg1)"/>
  <!-- Large organic shape -->
  <path d="M50 100 Q200 50 350 150 Q400 300 300 450 Q150 550 50 400 Q0 250 50 100" fill="rgba(212,175,55,0.1)"/>
  <!-- Layered circles -->
  <circle cx="200" cy="265" r="150" fill="none" stroke="rgba(212,175,55,0.2)" stroke-width="1"/>
  <circle cx="200" cy="265" r="120" fill="none" stroke="rgba(212,175,55,0.2)" stroke-width="1"/>
  <circle cx="200" cy="265" r="90" fill="none" stroke="rgba(212,175,55,0.3)" stroke-width="1"/>
  <circle cx="200" cy="265" r="60" fill="rgba(255,255,255,0.3)"/>
  <!-- Product silhouettes -->
  <rect x="170" y="220" width="60" height="90" rx="10" fill="rgba(212,175,55,0.2)"/>
  <ellipse cx="200" cy="215" rx="25" ry="8" fill="rgba(212,175,55,0.3)"/>
  <!-- Floating elements -->
  <circle cx="100" cy="150" r="20" fill="rgba(232,213,213,0.4)"/>
  <circle cx="320" cy="180" r="15" fill="rgba(212,175,55,0.2)"/>
  <circle cx="80" cy="380" r="25" fill="rgba(212,175,55,0.15)"/>
  <circle cx="340" cy="400" r="18" fill="rgba(232,213,213,0.3)"/>
  <!-- Light rays -->
  <line x1="200" y1="100" x2="200" y2="50" stroke="rgba(212,175,55,0.3)" stroke-width="1"/>
  <line x1="150" y1="120" x2="120" y2="80" stroke="rgba(212,175,55,0.2)" stroke-width="1"/>
  <line x1="250" y1="120" x2="280" y2="80" stroke="rgba(212,175,55,0.2)" stroke-width="1"/>
</svg>
