<svg xmlns="http://www.w3.org/2000/svg" viewBox="0 0 400 500" fill="none">
  <defs>
    <linearGradient id="bg1" x1="0%" y1="0%" x2="100%" y2="100%">
      <stop offset="0%" style="stop-color:#FAF9F7"/>
      <stop offset="50%" style="stop-color:#E8D5D5"/>
      <stop offset="100%" style="stop-color:#F5E6D3"/>
    </linearGradient>
  </defs>
  <!-- Background -->
  <rect width="400" height="500" fill="url(#bg1)"/>
  <!-- Abstract organic shapes -->
  <ellipse cx="200" cy="150" rx="120" ry="80" fill="rgba(212,175,55,0.1)"/>
  <ellipse cx="150" cy="300" rx="100" ry="120" fill="rgba(232,213,213,0.3)"/>
  <ellipse cx="280" cy="350" rx="80" ry="100" fill="rgba(212,175,55,0.15)"/>
  <!-- Flowing lines -->
  <path d="M50 100 Q150 150 200 100 Q250 50 350 120" stroke="rgba(212,175,55,0.3)" stroke-width="1" fill="none"/>
  <path d="M30 200 Q130 250 200 200 Q270 150 370 220" stroke="rgba(212,175,55,0.3)" stroke-width="1" fill="none"/>
  <path d="M50 400 Q150 350 200 400 Q250 450 350 380" stroke="rgba(212,175,55,0.3)" stroke-width="1" fill="none"/>
  <!-- Crystal shapes -->
  <polygon points="200,180 180,230 200,280 220,230" fill="none" stroke="rgba(212,175,55,0.4)" stroke-width="1"/>
  <polygon points="120,320 100,380 120,440 140,380" fill="none" stroke="rgba(232,213,213,0.6)" stroke-width="1"/>
  <polygon points="300,280 280,340 300,400 320,340" fill="none" stroke="rgba(212,175,55,0.4)" stroke-width="1"/>
  <!-- Decorative dots -->
  <circle cx="100" cy="120" r="3" fill="rgba(212,175,55,0.5)"/>
  <circle cx="320" cy="180" r="3" fill="rgba(212,175,55,0.5)"/>
  <circle cx="80" cy="450" r="3" fill="rgba(212,175,55,0.5)"/>
  <circle cx="340" cy="420" r="3" fill="rgba(212,175,55,0.5)"/>
</svg>
