<svg xmlns="http://www.w3.org/2000/svg" viewBox="0 0 200 200" fill="none">
  <defs>
    <linearGradient id="aurora1" x1="0%" y1="0%" x2="100%" y2="100%">
      <stop offset="0%" style="stop-color:#E8D5D5"/>
      <stop offset="30%" style="stop-color:#FAF9F7"/>
      <stop offset="70%" style="stop-color:#FFE4E1"/>
      <stop offset="100%" style="stop-color:#E8D5D5"/>
    </linearGradient>
    <linearGradient id="auroracap" x1="0%" y1="0%" x2="0%" y2="100%">
      <stop offset="0%" style="stop-color:#D4AF37"/>
      <stop offset="100%" style="stop-color:#B8962E"/>
    </linearGradient>
  </defs>
  <!-- Small dropper bottle -->
  <path d="M80 175 L80 85 Q80 70 95 65 L95 55 L105 55 L105 65 Q120 70 120 85 L120 175 Q120 180 100 180 Q80 180 80 175 Z" fill="url(#aurora1)" stroke="#D4B8B8" stroke-width="1"/>
  <!-- Dropper cap -->
  <rect x="92" y="35" width="16" height="20" rx="2" fill="url(#auroracap)"/>
  <!-- Rubber bulb -->
  <ellipse cx="100" cy="30" rx="8" ry="10" fill="#2D2A26"/>
  <!-- Label -->
  <rect x="85" y="100" width="30" height="45" rx="3" fill="rgba(255,255,255,0.5)"/>
  <!-- Aurora design elements -->
  <path d="M90 115 Q100 110 110 115" fill="none" stroke="#D4AF37" stroke-width="0.5"/>
  <path d="M92 125 Q100 120 108 125" fill="none" stroke="#D4AF37" stroke-width="0.5"/>
  <path d="M94 135 Q100 130 106 135" fill="none" stroke="#D4AF37" stroke-width="0.5"/>
  <!-- Inner glow -->
  <ellipse cx="90" cy="130" rx="4" ry="25" fill="rgba(255,255,255,0.4)"/>
</svg>
