<svg xmlns="http://www.w3.org/2000/svg" viewBox="0 0 200 200" fill="none">
  <defs>
    <linearGradient id="bottle1" x1="0%" y1="0%" x2="100%" y2="100%">
      <stop offset="0%" style="stop-color:#FAF9F7"/>
      <stop offset="50%" style="stop-color:#E8D5D5"/>
      <stop offset="100%" style="stop-color:#D4AF37"/>
    </linearGradient>
    <linearGradient id="cap1" x1="0%" y1="0%" x2="0%" y2="100%">
      <stop offset="0%" style="stop-color:#D4AF37"/>
      <stop offset="100%" style="stop-color:#B8962E"/>
    </linearGradient>
  </defs>
  <!-- Bottle body -->
  <path d="M70 180 L70 80 Q70 60 85 55 L85 45 Q85 35 100 35 Q115 35 115 45 L115 55 Q130 60 130 80 L130 180 Q130 190 100 190 Q70 190 70 180 Z" fill="url(#bottle1)" stroke="#D4AF37" stroke-width="1"/>
  <!-- Cap -->
  <rect x="85" y="25" width="30" height="20" rx="3" fill="url(#cap1)"/>
  <!-- Label area -->
  <rect x="78" y="100" width="44" height="50" rx="4" fill="rgba(255,255,255,0.6)"/>
  <!-- Decorative line -->
  <line x1="85" y1="115" x2="115" y2="115" stroke="#D4AF37" stroke-width="1"/>
  <line x1="90" y1="125" x2="110" y2="125" stroke="#D4AF37" stroke-width="0.5"/>
  <!-- Shimmer effect -->
  <ellipse cx="90" cy="70" rx="8" ry="15" fill="rgba(255,255,255,0.4)"/>
</svg>
