<svg xmlns="http://www.w3.org/2000/svg" viewBox="0 0 200 200" fill="none">
  <defs>
    <linearGradient id="eye1" x1="0%" y1="0%" x2="100%" y2="100%">
      <stop offset="0%" style="stop-color:#E8D5D5"/>
      <stop offset="50%" style="stop-color:#F5E6E6"/>
      <stop offset="100%" style="stop-color:#E8D5D5"/>
    </linearGradient>
    <linearGradient id="eyecap" x1="0%" y1="0%" x2="0%" y2="100%">
      <stop offset="0%" style="stop-color:#E8C964"/>
      <stop offset="100%" style="stop-color:#D4AF37"/>
    </linearGradient>
  </defs>
  <!-- Small eye cream tube -->
  <path d="M70 170 L70 85 Q70 65 100 65 Q130 65 130 85 L130 170 Q130 180 100 180 Q70 180 70 170 Z" fill="url(#eye1)" stroke="#D4B8B8" stroke-width="1"/>
  <!-- Cap -->
  <rect x="75" y="50" width="50" height="20" rx="8" fill="url(#eyecap)"/>
  <ellipse cx="100" cy="50" rx="25" ry="8" fill="#E8C964"/>
  <!-- Rose quartz crystal motif -->
  <path d="M100 95 L90 110 L100 130 L110 110 Z" fill="none" stroke="#D4AF37" stroke-width="0.5"/>
  <path d="M95 105 L100 95 L105 105" fill="none" stroke="#D4AF37" stroke-width="0.5"/>
  <!-- Label area -->
  <ellipse cx="100" cy="140" rx="25" ry="15" fill="rgba(255,255,255,0.4)"/>
  <!-- Decorative line -->
  <line x1="85" y1="150" x2="115" y2="150" stroke="#D4AF37" stroke-width="0.5"/>
  <!-- Shimmer -->
  <ellipse cx="80" cy="115" rx="5" ry="25" fill="rgba(255,255,255,0.5)"/>
</svg>
